<?xml version="1.0" encoding="utf-8"?>
<!-- Generator: Adobe Illustrator 17.0.0, SVG Export Plug-In . SVG Version: 6.00 Build 0)  -->
<!DOCTYPE svg PUBLIC "-//W3C//DTD SVG 1.1//EN" "http://www.w3.org/Graphics/SVG/1.1/DTD/svg11.dtd">
<svg version="1.1" id="Layer_1" xmlns="http://www.w3.org/2000/svg" xmlns:xlink="http://www.w3.org/1999/xlink" x="0px" y="0px"
	 width="464.714px" height="106.362px" viewBox="0 0 464.714 106.362" enable-background="new 0 0 464.714 106.362"
	 xml:space="preserve">
<g>
	<path stroke="#808080" stroke-width="4" stroke-miterlimit="10" d="M462.714,64.351c0,22.097-17.913,40.011-40.011,40.011H42.011
		C19.913,104.362,2,86.449,2,64.351V42.011C2,19.913,19.913,2,42.011,2h380.692c22.097,0,40.011,17.913,40.011,40.011V64.351z"/>
	<path fill="#4DE00C" d="M46.601,73.291c-3.618,0-7.235-1.377-9.99-4.131l-9.899-9.899l3.007-3.007l9.899,9.899
		c3.849,3.85,10.114,3.851,13.964,0l28.366-28.267l3.001,3.012L56.586,69.163C53.834,71.915,50.218,73.291,46.601,73.291z"/>
	<path fill="#FFFFFF" d="M84.619,73.399c-1.174,0-2.126-0.952-2.126-2.126V45.271c0-5.444-4.43-9.874-9.874-9.874h-14
		c-5.444,0-9.874,4.43-9.874,9.874v26.001c0,1.174-0.952,2.126-2.126,2.126s-2.126-0.952-2.126-2.126V45.271
		c0-7.789,6.337-14.126,14.126-14.126h14c7.789,0,14.126,6.337,14.126,14.126v26.001C86.745,72.447,85.794,73.399,84.619,73.399z"/>
	<path fill="#4DE00C" d="M46.6,73.291c-3.618,0-7.234-1.376-9.989-4.13l-9.899-9.899c-0.83-0.831-0.83-2.176,0-3.007
		c0.83-0.83,2.177-0.83,3.007,0l9.899,9.899c3.849,3.85,10.114,3.851,13.964,0c0.831-0.83,2.177-0.83,3.007,0
		c0.83,0.831,0.83,2.177,0,3.007C53.835,71.914,50.217,73.291,46.6,73.291z"/>
	<path fill="#FFFFFF" d="M135.623,73.898h-26.001c-7.789,0-14.126-6.337-14.126-14.126v-14c0-7.789,6.337-14.126,14.126-14.126
		h26.001c1.174,0,2.126,0.952,2.126,2.126s-0.952,2.126-2.126,2.126h-26.001c-5.444,0-9.874,4.43-9.874,9.874v14
		c0,5.444,4.43,9.874,9.874,9.874h26.001c1.174,0,2.126,0.952,2.126,2.126S136.797,73.898,135.623,73.898z"/>
	<path fill="#FFFFFF" d="M182.625,73.898h-26.001c-7.789,0-14.126-6.337-14.126-14.126v-14c0-7.789,6.337-14.126,14.126-14.126
		h26.001c1.174,0,2.126,0.952,2.126,2.126s-0.952,2.126-2.126,2.126h-26.001c-5.444,0-9.874,4.43-9.874,9.874v14
		c0,5.444,4.43,9.874,9.874,9.874h26.001c1.174,0,2.126,0.952,2.126,2.126S183.8,73.898,182.625,73.898z"/>
	<path fill="#FFFFFF" d="M229.627,73.898h-26.001c-7.789,0-14.126-6.337-14.126-14.126v-14c0-7.789,6.337-14.126,14.126-14.126
		h26.001c1.174,0,2.126,0.952,2.126,2.126s-0.952,2.126-2.126,2.126h-26.001c-5.444,0-9.874,4.43-9.874,9.874v14
		c0,5.444,4.43,9.874,9.874,9.874h26.001c1.174,0,2.126,0.952,2.126,2.126S230.802,73.898,229.627,73.898z"/>
	<path fill="#FFFFFF" d="M329.632,54.398H291.63c-1.174,0-2.126-0.952-2.126-2.126s0.952-2.126,2.126-2.126h38.002
		c1.174,0,2.126,0.952,2.126,2.126S330.806,54.398,329.632,54.398z"/>
	<path fill="#FFFFFF" d="M329.632,73.898h-26.001c-7.789,0-14.126-6.337-14.126-14.126V32.771c0-1.174,0.952-2.126,2.126-2.126
		s2.126,0.952,2.126,2.126v27.001c0,5.444,4.43,9.874,9.874,9.874h26.001c1.174,0,2.126,0.952,2.126,2.126
		S330.806,73.898,329.632,73.898z"/>
	<path fill="#FFFFFF" d="M379.636,54.398h-38.002c-1.174,0-2.126-0.952-2.126-2.126s0.952-2.126,2.126-2.126h38.002
		c1.174,0,2.126,0.952,2.126,2.126S380.81,54.398,379.636,54.398z"/>
	<path fill="#FFFFFF" d="M229.628,54.398h-38.002c-1.174,0-2.126-0.952-2.126-2.126s0.952-2.126,2.126-2.126h38.002
		c1.174,0,2.126,0.952,2.126,2.126S230.803,54.398,229.628,54.398z"/>
	<path fill="#FFFFFF" d="M379.636,73.898h-26.001c-7.789,0-14.126-6.337-14.126-14.126V32.771c0-1.174,0.952-2.126,2.126-2.126
		s2.126,0.952,2.126,2.126v27.001c0,5.444,4.43,9.874,9.874,9.874h26.001c1.174,0,2.126,0.952,2.126,2.126
		S380.81,73.898,379.636,73.898z"/>
	<path fill="#FFFFFF" d="M416.139,73.898h-14.001c-7.789,0-14.126-6.337-14.126-14.126v-14c0-7.789,6.337-14.126,14.126-14.126
		h14.001c7.789,0,14.126,6.337,14.126,14.126v14C430.265,67.561,423.928,73.898,416.139,73.898z M402.138,35.898
		c-5.444,0-9.874,4.43-9.874,9.874v14c0,5.444,4.43,9.874,9.874,9.874h14.001c5.444,0,9.874-4.43,9.874-9.874v-14
		c0-5.444-4.43-9.874-9.874-9.874H402.138z"/>
	<path fill="#FFFFFF" d="M241.628,85.064c-1.174,0-2.126-0.952-2.126-2.126V31.646h28.128c7.789,0,14.126,6.337,14.126,14.126v14
		c0,7.789-6.337,14.126-14.126,14.126h-23.876v9.04C243.754,84.112,242.802,85.064,241.628,85.064z M243.754,69.646h23.876
		c5.444,0,9.874-4.43,9.874-9.874v-14c0-5.444-4.43-9.874-9.874-9.874h-23.876V69.646z"/>
</g>
</svg>
